<svg width="512" height="512" viewBox="0 0 512 512" fill="none" xmlns="http://www.w3.org/2000/svg">
  <rect width="512" height="512" rx="120" fill="url(#grad)" />
  <path d="M256 120C180 120 120 180 120 256C120 332 180 392 256 392C332 392 392 332 392 256C392 180 332 120 256 120ZM256 350C205 350 162 307 162 256C162 205 205 162 256 162C307 162 350 205 350 256C350 307 307 350 256 350Z" fill="white" />
  <path d="M256 190L290 280H222L256 190Z" fill="white" />
  <defs>
    <linearGradient id="grad" x1="0%" y1="0%" x2="100%" y2="100%">
      <stop offset="0%" stop-color="#b682ff" />
      <stop offset="100%" stop-color="#8b5cf6" />
    </linearGradient>
  </defs>
</svg>
